<svg xmlns="http://www.w3.org/2000/svg" viewBox="0 0 1764.39 792.38"><defs><style>.cls-1{fill:#49155c;}.cls-2{fill:#662482;}.cls-3{fill:#fff;}</style></defs><g id="Ebene_2" data-name="Ebene 2"><g id="lilac1"><circle class="cls-1" cx="396.19" cy="396.19" r="396.19"/></g><g id="lilac2"><path class="cls-2" d="M396.19,0a394.34,394.34,0,0,0-205.1,57.15A370.32,370.32,0,0,0,98.5,302.64C98.5,508,264.93,674.38,470.24,674.38c125.06,0,235.69-61.75,303.07-156.43a395.79,395.79,0,0,0,19.07-121.76C792.38,177.38,615,0,396.19,0Z"/></g><g id="white"><path class="cls-3" d="M927.87,463.82c-29.09,0-44.25-20.21-44.25-40.21a6.39,6.39,0,0,1,6.47-6.47,6.51,6.51,0,0,1,6.46,6.47c0,13.13,9.7,27.27,31.32,27.27s31.52-14.14,31.52-27.27c0-17.58-12.52-22-32.73-27.89-17.78-5.25-40-11.51-40-37.18,0-18.58,14.15-37.38,41.22-37.38,27.28,0,41.42,18.8,41.42,37.38a6.47,6.47,0,1,1-12.93,0c0-11.72-8.89-24.65-28.49-24.65-19.39,0-28.29,12.93-28.29,24.65,0,15.16,11.52,19.2,30.72,24.86,18.59,5.45,42,12.12,42,40.21C972.33,443.61,957,463.82,927.87,463.82Z"/><path class="cls-3" d="M1041.83,445.63a6.41,6.41,0,0,1,.81,9.09,26.21,26.21,0,0,1-46.07-17V367.43h-5.86a6.36,6.36,0,0,1,0-12.72h5.86V334.1a6.51,6.51,0,0,1,6.47-6.47,6.38,6.38,0,0,1,6.46,6.47v20.61h22.84a6.36,6.36,0,1,1,0,12.72H1009.5v70.32a13.28,13.28,0,0,0,13.34,13.13,12.55,12.55,0,0,0,9.9-4.64A6.42,6.42,0,0,1,1041.83,445.63Z"/><path class="cls-3" d="M1106.69,361a6.38,6.38,0,0,1-6.46,6.46c-17.79,0-31.32,14.55-31.32,33.75v56.17a6.37,6.37,0,1,1-12.73,0V361a6.37,6.37,0,0,1,12.73,0v6.67a43.07,43.07,0,0,1,31.32-12.93A6.33,6.33,0,0,1,1106.69,361Z"/><path class="cls-3" d="M1157.21,463.82c-29.5,0-51.53-23.44-51.53-54.56,0-14.75,4.85-28.29,13.74-38.39,9.3-10.51,22.43-16.16,36.78-16.16,28.89,0,49.7,22.83,49.7,54.55a6.51,6.51,0,0,1-6.46,6.47h-80.62c2.82,20.4,18.38,35.15,38.39,35.15,13.53,0,25.46-6.46,32.33-18.18a6.53,6.53,0,0,1,11.11,6.87A50.07,50.07,0,0,1,1157.21,463.82Zm-38.39-61h73.75c-2.43-21-16.57-35.36-36.37-35.36S1121.44,382,1118.82,402.79Z"/><path class="cls-3" d="M1320.27,361v96.38a6.47,6.47,0,1,1-12.93,0V446a49.85,49.85,0,0,1-38.8,17.78c-29.3,0-51.52-23.44-51.52-54.56s22.22-54.55,51.52-54.55a50.32,50.32,0,0,1,38.8,17.57V361a6.47,6.47,0,0,1,12.93,0Zm-12.93,48.29c0-23.84-16.57-41.83-38.8-41.83-22,0-38.59,18-38.59,41.83,0,23.64,16.57,41.62,38.59,41.62C1290.77,450.88,1307.34,432.9,1307.34,409.26Z"/><path class="cls-3" d="M1486.16,401.18v56.17a6.47,6.47,0,0,1-12.94,0V401.18c0-19.8-11.11-33.75-27.27-33.75-17.58,0-30.31,14.35-30.31,33.75v56.17a6.37,6.37,0,1,1-12.73,0V401.18c0-19.8-11.32-33.75-27.28-33.75-17.58,0-30.31,14.35-30.31,33.75v56.17a6.51,6.51,0,0,1-6.46,6.47,6.39,6.39,0,0,1-6.47-6.47V361a6.34,6.34,0,0,1,6.47-6.26,6.46,6.46,0,0,1,6.46,6.26v6.26a41.47,41.47,0,0,1,30.31-12.52c14.75,0,27.08,7.88,33.95,20.61a39.69,39.69,0,0,1,4.85-6.67c7.88-9.1,19.19-13.94,31.52-13.94C1469.18,354.71,1486.16,374.3,1486.16,401.18Z"/><path class="cls-3" d="M1508,330.66a7,7,0,0,1,7.07,6.87,6.86,6.86,0,0,1-7.07,6.87,7,7,0,0,1-7.07-6.87A7.12,7.12,0,0,1,1508,330.66Zm0,133.16a6.51,6.51,0,0,1-6.47-6.47V361a6.47,6.47,0,0,1,6.47-6.26,6.33,6.33,0,0,1,6.46,6.26v96.38A6.38,6.38,0,0,1,1508,463.82Z"/><path class="cls-3" d="M1579.71,463.82c-29.3,0-51.53-23.44-51.53-54.56s22.23-54.55,51.53-54.55c17,0,32.13,7.67,41.62,21.41a6.45,6.45,0,1,1-10.5,7.48,37.08,37.08,0,0,0-31.12-16.17c-22,0-38.8,18-38.8,41.83,0,23.64,16.77,41.62,38.8,41.62,12.93,0,23.84-5.65,31.12-16a6.39,6.39,0,1,1,10.5,7.28A49.81,49.81,0,0,1,1579.71,463.82Z"/><path class="cls-3" d="M1736.3,361v96.38a6.47,6.47,0,1,1-12.93,0V446a49.81,49.81,0,0,1-38.79,17.78c-29.3,0-51.53-23.44-51.53-54.56s22.23-54.55,51.53-54.55a50.28,50.28,0,0,1,38.79,17.57V361a6.47,6.47,0,0,1,12.93,0Zm-12.93,48.29c0-23.84-16.57-41.83-38.79-41.83-22,0-38.6,18-38.6,41.83,0,23.64,16.57,41.62,38.6,41.62C1706.8,450.88,1723.37,432.9,1723.37,409.26Z"/><path class="cls-3" d="M1764.39,327.63V457.35a6.47,6.47,0,1,1-12.93,0V327.63a6.47,6.47,0,1,1,12.93,0Z"/><rect class="cls-3" x="362.39" y="269.16" width="67.61" height="26.06"/><rect class="cls-3" x="362.39" y="167.47" width="67.61" height="75.75"/><path class="cls-3" d="M461.74,463.24V414.06H430v-92.9H362.39v92.9H330.64v49.18H304V781.6s38.37,10.78,92.2,10.78c54.95,0,92.2-10.78,92.2-10.78V463.24Z"/></g></g></svg>
