<svg xmlns="http://www.w3.org/2000/svg" viewBox="0 0 792.38 792.38"><defs><style>.cls-1{fill:#49155c;}.cls-2{fill:#662482;}.cls-3{fill:#fff;}</style></defs><g id="Ebene_2" data-name="Ebene 2"><g id="lilac1"><circle class="cls-1" cx="396.19" cy="396.19" r="396.19"/></g><g id="lilac2"><path class="cls-2" d="M396.19,0a394.34,394.34,0,0,0-205.1,57.15A370.32,370.32,0,0,0,98.5,302.64C98.5,508,264.93,674.38,470.24,674.38c125.06,0,235.69-61.75,303.07-156.43a395.79,395.79,0,0,0,19.07-121.76C792.38,177.38,615,0,396.19,0Z"/></g><g id="white"><rect class="cls-3" x="362.39" y="269.16" width="67.61" height="26.06"/><rect class="cls-3" x="362.39" y="167.47" width="67.61" height="75.75"/><path class="cls-3" d="M461.74,463.24V414.06H430v-92.9H362.39v92.9H330.64v49.18H304V781.6s38.37,10.78,92.2,10.78c54.95,0,92.2-10.78,92.2-10.78V463.24Z"/></g></g></svg>